<mxfile host="app.diagrams.net" agent="Mozilla/5.0 (Windows NT 10.0; Win64; x64) AppleWebKit/537.36 (KHTML, like Gecko) Chrome/129.0.0.0 Safari/537.36" version="24.7.17">
  <diagram name="Pagina-1" id="8PWBsDYuOVdrBzMtfkwO">
    <mxGraphModel dx="1434" dy="738" grid="1" gridSize="10" guides="1" tooltips="1" connect="1" arrows="1" fold="1" page="1" pageScale="1" pageWidth="827" pageHeight="1169" math="0" shadow="0">
      <root>
        <mxCell id="0" />
        <mxCell id="1" parent="0" />
        <mxCell id="oQ5qW9e3a5djnMN9H6_b-1" value="Utente" style="shape=umlActor;verticalLabelPosition=bottom;verticalAlign=top;html=1;" parent="1" vertex="1">
          <mxGeometry x="30" y="70" width="30" height="60" as="geometry" />
        </mxCell>
        <mxCell id="5TKSi7IiPSplJKDnQ_oW-1" value="" style="html=1;points=[[0,0,0,0,5],[0,1,0,0,-5],[1,0,0,0,5],[1,1,0,0,-5]];perimeter=orthogonalPerimeter;outlineConnect=0;targetShapes=umlLifeline;portConstraint=eastwest;newEdgeStyle={&quot;curved&quot;:0,&quot;rounded&quot;:0};" vertex="1" parent="1">
          <mxGeometry x="40" y="160" width="10" height="480" as="geometry" />
        </mxCell>
        <mxCell id="5TKSi7IiPSplJKDnQ_oW-2" value="GC: GruppiController" style="html=1;whiteSpace=wrap;" vertex="1" parent="1">
          <mxGeometry x="190" y="80" width="140" height="50" as="geometry" />
        </mxCell>
        <mxCell id="5TKSi7IiPSplJKDnQ_oW-4" value="" style="html=1;points=[[0,0,0,0,5],[0,1,0,0,-5],[1,0,0,0,5],[1,1,0,0,-5]];perimeter=orthogonalPerimeter;outlineConnect=0;targetShapes=umlLifeline;portConstraint=eastwest;newEdgeStyle={&quot;curved&quot;:0,&quot;rounded&quot;:0};" vertex="1" parent="1">
          <mxGeometry x="255" y="180" width="10" height="390" as="geometry" />
        </mxCell>
        <mxCell id="5TKSi7IiPSplJKDnQ_oW-5" value="ActionPost(NU, NG, NewPost)" style="html=1;verticalAlign=bottom;endArrow=block;curved=0;rounded=0;entryX=0;entryY=0;entryDx=0;entryDy=5;entryPerimeter=0;exitX=1;exitY=0;exitDx=0;exitDy=5;exitPerimeter=0;" edge="1" parent="1">
          <mxGeometry x="-0.0244" y="5" width="80" relative="1" as="geometry">
            <mxPoint x="50" y="180" as="sourcePoint" />
            <mxPoint x="255" y="180" as="targetPoint" />
            <mxPoint as="offset" />
          </mxGeometry>
        </mxCell>
        <mxCell id="5TKSi7IiPSplJKDnQ_oW-7" value="gruppiView: GruppiGui" style="html=1;whiteSpace=wrap;" vertex="1" parent="1">
          <mxGeometry x="600" y="80" width="146" height="50" as="geometry" />
        </mxCell>
        <mxCell id="5TKSi7IiPSplJKDnQ_oW-8" value="C: ContenutiDao" style="html=1;whiteSpace=wrap;" vertex="1" parent="1">
          <mxGeometry x="400" y="80" width="140" height="50" as="geometry" />
        </mxCell>
        <mxCell id="5TKSi7IiPSplJKDnQ_oW-9" value="GF: GestioneFinestre" style="html=1;whiteSpace=wrap;" vertex="1" parent="1">
          <mxGeometry x="800" y="80" width="140" height="50" as="geometry" />
        </mxCell>
        <mxCell id="5TKSi7IiPSplJKDnQ_oW-10" value="" style="html=1;points=[[0,0,0,0,5],[0,1,0,0,-5],[1,0,0,0,5],[1,1,0,0,-5]];perimeter=orthogonalPerimeter;outlineConnect=0;targetShapes=umlLifeline;portConstraint=eastwest;newEdgeStyle={&quot;curved&quot;:0,&quot;rounded&quot;:0};" vertex="1" parent="1">
          <mxGeometry x="463" y="290" width="10" height="50" as="geometry" />
        </mxCell>
        <mxCell id="5TKSi7IiPSplJKDnQ_oW-11" value="InsContenuto(null, NewPost, NG, NU)" style="html=1;verticalAlign=bottom;endArrow=block;curved=0;rounded=0;entryX=0;entryY=0;entryDx=0;entryDy=5;entryPerimeter=0;exitX=1.2;exitY=0.052;exitDx=0;exitDy=0;exitPerimeter=0;" edge="1" parent="1" target="5TKSi7IiPSplJKDnQ_oW-10">
          <mxGeometry width="80" relative="1" as="geometry">
            <mxPoint x="265" y="296" as="sourcePoint" />
            <mxPoint x="343" y="300" as="targetPoint" />
          </mxGeometry>
        </mxCell>
        <mxCell id="5TKSi7IiPSplJKDnQ_oW-12" value="" style="endArrow=none;dashed=1;html=1;dashPattern=1 3;strokeWidth=2;rounded=0;entryX=0.5;entryY=1;entryDx=0;entryDy=0;" edge="1" parent="1" source="5TKSi7IiPSplJKDnQ_oW-10" target="5TKSi7IiPSplJKDnQ_oW-8">
          <mxGeometry width="50" height="50" relative="1" as="geometry">
            <mxPoint x="469.5" y="250" as="sourcePoint" />
            <mxPoint x="469.5" y="190" as="targetPoint" />
          </mxGeometry>
        </mxCell>
        <mxCell id="5TKSi7IiPSplJKDnQ_oW-13" value="" style="html=1;verticalAlign=bottom;endArrow=open;dashed=1;endSize=8;curved=0;rounded=0;" edge="1" parent="1" target="5TKSi7IiPSplJKDnQ_oW-4">
          <mxGeometry relative="1" as="geometry">
            <mxPoint x="463" y="330" as="sourcePoint" />
            <mxPoint x="383" y="330" as="targetPoint" />
          </mxGeometry>
        </mxCell>
        <mxCell id="5TKSi7IiPSplJKDnQ_oW-14" value="" style="html=1;points=[[0,0,0,0,5],[0,1,0,0,-5],[1,0,0,0,5],[1,1,0,0,-5]];perimeter=orthogonalPerimeter;outlineConnect=0;targetShapes=umlLifeline;portConstraint=eastwest;newEdgeStyle={&quot;curved&quot;:0,&quot;rounded&quot;:0};" vertex="1" parent="1">
          <mxGeometry x="670" y="370" width="10" height="40" as="geometry" />
        </mxCell>
        <mxCell id="5TKSi7IiPSplJKDnQ_oW-15" value="setVisible(false)" style="html=1;verticalAlign=bottom;endArrow=block;curved=0;rounded=0;entryX=0;entryY=0;entryDx=0;entryDy=5;" edge="1" target="5TKSi7IiPSplJKDnQ_oW-14" parent="1" source="5TKSi7IiPSplJKDnQ_oW-4">
          <mxGeometry x="0.2593" y="5" relative="1" as="geometry">
            <mxPoint x="600" y="375" as="sourcePoint" />
            <mxPoint as="offset" />
          </mxGeometry>
        </mxCell>
        <mxCell id="5TKSi7IiPSplJKDnQ_oW-16" value="" style="html=1;verticalAlign=bottom;endArrow=open;dashed=1;endSize=8;curved=0;rounded=0;exitX=0;exitY=1;exitDx=0;exitDy=-5;" edge="1" source="5TKSi7IiPSplJKDnQ_oW-14" parent="1" target="5TKSi7IiPSplJKDnQ_oW-4">
          <mxGeometry relative="1" as="geometry">
            <mxPoint x="600" y="445" as="targetPoint" />
          </mxGeometry>
        </mxCell>
        <mxCell id="5TKSi7IiPSplJKDnQ_oW-17" value="" style="html=1;points=[[0,0,0,0,5],[0,1,0,0,-5],[1,0,0,0,5],[1,1,0,0,-5]];perimeter=orthogonalPerimeter;outlineConnect=0;targetShapes=umlLifeline;portConstraint=eastwest;newEdgeStyle={&quot;curved&quot;:0,&quot;rounded&quot;:0};" vertex="1" parent="1">
          <mxGeometry x="865" y="440" width="10" height="40" as="geometry" />
        </mxCell>
        <mxCell id="5TKSi7IiPSplJKDnQ_oW-18" value="GruppiGUI(NU, NG)" style="html=1;verticalAlign=bottom;endArrow=block;curved=0;rounded=0;entryX=0;entryY=0;entryDx=0;entryDy=5;" edge="1" target="5TKSi7IiPSplJKDnQ_oW-17" parent="1">
          <mxGeometry relative="1" as="geometry">
            <mxPoint x="270" y="450" as="sourcePoint" />
          </mxGeometry>
        </mxCell>
        <mxCell id="5TKSi7IiPSplJKDnQ_oW-19" value="" style="html=1;verticalAlign=bottom;endArrow=open;dashed=1;endSize=7;curved=0;rounded=0;exitX=0;exitY=1;exitDx=0;exitDy=-5;targetPerimeterSpacing=0;" edge="1" source="5TKSi7IiPSplJKDnQ_oW-17" parent="1" target="5TKSi7IiPSplJKDnQ_oW-4">
          <mxGeometry x="0.0248" y="-5" relative="1" as="geometry">
            <mxPoint x="800" y="565" as="targetPoint" />
            <mxPoint as="offset" />
          </mxGeometry>
        </mxCell>
        <mxCell id="5TKSi7IiPSplJKDnQ_oW-20" value="" style="endArrow=none;dashed=1;html=1;dashPattern=1 3;strokeWidth=2;rounded=0;entryX=0.5;entryY=1;entryDx=0;entryDy=0;" edge="1" parent="1" target="5TKSi7IiPSplJKDnQ_oW-7">
          <mxGeometry width="50" height="50" relative="1" as="geometry">
            <mxPoint x="674.5" y="370" as="sourcePoint" />
            <mxPoint x="674.5" y="190" as="targetPoint" />
          </mxGeometry>
        </mxCell>
        <mxCell id="5TKSi7IiPSplJKDnQ_oW-21" value="" style="endArrow=none;dashed=1;html=1;dashPattern=1 3;strokeWidth=2;rounded=0;entryX=0.5;entryY=1;entryDx=0;entryDy=0;" edge="1" parent="1" target="5TKSi7IiPSplJKDnQ_oW-9">
          <mxGeometry width="50" height="50" relative="1" as="geometry">
            <mxPoint x="870" y="440" as="sourcePoint" />
            <mxPoint x="875" y="150" as="targetPoint" />
          </mxGeometry>
        </mxCell>
        <mxCell id="5TKSi7IiPSplJKDnQ_oW-22" value="OPT" style="shape=umlFrame;whiteSpace=wrap;html=1;pointerEvents=0;" vertex="1" parent="1">
          <mxGeometry x="80" y="260" width="830" height="240" as="geometry" />
        </mxCell>
        <mxCell id="5TKSi7IiPSplJKDnQ_oW-24" value="" style="html=1;verticalAlign=bottom;endArrow=open;dashed=1;endSize=8;curved=0;rounded=0;" edge="1" parent="1">
          <mxGeometry relative="1" as="geometry">
            <mxPoint x="255" y="560" as="sourcePoint" />
            <mxPoint x="50" y="560" as="targetPoint" />
          </mxGeometry>
        </mxCell>
        <mxCell id="5TKSi7IiPSplJKDnQ_oW-25" value="" style="endArrow=none;dashed=1;html=1;dashPattern=1 3;strokeWidth=2;rounded=0;entryX=0.5;entryY=1.04;entryDx=0;entryDy=0;entryPerimeter=0;" edge="1" parent="1" target="5TKSi7IiPSplJKDnQ_oW-10">
          <mxGeometry width="50" height="50" relative="1" as="geometry">
            <mxPoint x="470" y="640" as="sourcePoint" />
            <mxPoint x="513" y="520" as="targetPoint" />
          </mxGeometry>
        </mxCell>
        <mxCell id="5TKSi7IiPSplJKDnQ_oW-26" value="" style="endArrow=none;dashed=1;html=1;dashPattern=1 3;strokeWidth=2;rounded=0;" edge="1" parent="1">
          <mxGeometry width="50" height="50" relative="1" as="geometry">
            <mxPoint x="675" y="640" as="sourcePoint" />
            <mxPoint x="674.5" y="410" as="targetPoint" />
          </mxGeometry>
        </mxCell>
        <mxCell id="5TKSi7IiPSplJKDnQ_oW-27" value="" style="endArrow=none;dashed=1;html=1;dashPattern=1 3;strokeWidth=2;rounded=0;" edge="1" parent="1">
          <mxGeometry width="50" height="50" relative="1" as="geometry">
            <mxPoint x="870" y="640" as="sourcePoint" />
            <mxPoint x="869.5" y="480" as="targetPoint" />
          </mxGeometry>
        </mxCell>
        <mxCell id="5TKSi7IiPSplJKDnQ_oW-28" value="NewPost: String" style="html=1;whiteSpace=wrap;" vertex="1" parent="1">
          <mxGeometry x="990" y="80" width="130" height="50" as="geometry" />
        </mxCell>
        <mxCell id="5TKSi7IiPSplJKDnQ_oW-30" value="" style="endArrow=none;dashed=1;html=1;dashPattern=1 3;strokeWidth=2;rounded=0;entryX=0.5;entryY=1;entryDx=0;entryDy=0;" edge="1" parent="1" source="5TKSi7IiPSplJKDnQ_oW-4" target="5TKSi7IiPSplJKDnQ_oW-2">
          <mxGeometry width="50" height="50" relative="1" as="geometry">
            <mxPoint x="300" y="210" as="sourcePoint" />
            <mxPoint x="350" y="160" as="targetPoint" />
          </mxGeometry>
        </mxCell>
        <mxCell id="5TKSi7IiPSplJKDnQ_oW-31" value="" style="html=1;points=[[0,0,0,0,5],[0,1,0,0,-5],[1,0,0,0,5],[1,1,0,0,-5]];perimeter=orthogonalPerimeter;outlineConnect=0;targetShapes=umlLifeline;portConstraint=eastwest;newEdgeStyle={&quot;curved&quot;:0,&quot;rounded&quot;:0};" vertex="1" parent="1">
          <mxGeometry x="1055" y="190" width="10" height="50" as="geometry" />
        </mxCell>
        <mxCell id="5TKSi7IiPSplJKDnQ_oW-32" value="isEmpty(NewPost)" style="html=1;verticalAlign=bottom;endArrow=block;curved=0;rounded=0;entryX=0;entryY=0;entryDx=0;entryDy=5;" edge="1" target="5TKSi7IiPSplJKDnQ_oW-31" parent="1">
          <mxGeometry x="-0.1519" y="5" relative="1" as="geometry">
            <mxPoint x="265" y="195" as="sourcePoint" />
            <mxPoint as="offset" />
          </mxGeometry>
        </mxCell>
        <mxCell id="5TKSi7IiPSplJKDnQ_oW-33" value="isEmptyPost" style="html=1;verticalAlign=bottom;endArrow=open;dashed=1;endSize=8;curved=0;rounded=0;exitX=0;exitY=1;exitDx=0;exitDy=-5;" edge="1" source="5TKSi7IiPSplJKDnQ_oW-31" parent="1" target="5TKSi7IiPSplJKDnQ_oW-4">
          <mxGeometry x="0.1519" y="-5" relative="1" as="geometry">
            <mxPoint x="975" y="235" as="targetPoint" />
            <mxPoint as="offset" />
          </mxGeometry>
        </mxCell>
        <mxCell id="5TKSi7IiPSplJKDnQ_oW-34" value="&lt;font style=&quot;font-size: 15px;&quot;&gt;!isEmptyPost&lt;/font&gt;" style="rounded=0;whiteSpace=wrap;html=1;" vertex="1" parent="1">
          <mxGeometry x="90" y="300" width="110" height="20" as="geometry" />
        </mxCell>
        <mxCell id="5TKSi7IiPSplJKDnQ_oW-35" value="" style="endArrow=none;dashed=1;html=1;dashPattern=1 3;strokeWidth=2;rounded=0;" edge="1" parent="1">
          <mxGeometry width="50" height="50" relative="1" as="geometry">
            <mxPoint x="1060" y="640" as="sourcePoint" />
            <mxPoint x="1059.5" y="240" as="targetPoint" />
          </mxGeometry>
        </mxCell>
        <mxCell id="5TKSi7IiPSplJKDnQ_oW-36" value="" style="endArrow=none;dashed=1;html=1;dashPattern=1 3;strokeWidth=2;rounded=0;entryX=0.538;entryY=1;entryDx=0;entryDy=0;entryPerimeter=0;" edge="1" parent="1" target="5TKSi7IiPSplJKDnQ_oW-28">
          <mxGeometry width="50" height="50" relative="1" as="geometry">
            <mxPoint x="1060" y="190" as="sourcePoint" />
            <mxPoint x="1110" y="140" as="targetPoint" />
          </mxGeometry>
        </mxCell>
        <mxCell id="5TKSi7IiPSplJKDnQ_oW-37" value="" style="endArrow=none;dashed=1;html=1;dashPattern=1 3;strokeWidth=2;rounded=0;" edge="1" parent="1" target="5TKSi7IiPSplJKDnQ_oW-4">
          <mxGeometry width="50" height="50" relative="1" as="geometry">
            <mxPoint x="260" y="640" as="sourcePoint" />
            <mxPoint x="260" y="580" as="targetPoint" />
          </mxGeometry>
        </mxCell>
      </root>
    </mxGraphModel>
  </diagram>
</mxfile>
